<svg width="20" height="20" viewBox="0 0 20 20" fill="none" xmlns="http://www.w3.org/2000/svg">
<path d="M11.3805 19.7543C10.4704 19.8821 9.54635 19.8822 8.63633 19.7543L9.41269 14.2396C9.80847 14.2949 10.2102 14.2949 10.6061 14.2396L11.3805 19.7543Z" fill="white"/>
<path d="M7.3668 13.3725C7.68785 13.6239 8.03629 13.824 8.40098 13.9711L6.31504 19.1313C5.46308 18.7869 4.66318 18.3248 3.93906 17.7592L7.3668 13.3725Z" fill="white"/>
<path d="M15.7105 9.98477C15.7104 10.721 15.5671 11.4475 15.2926 12.1254L19.15 13.684C18.8057 14.5362 18.3439 15.3367 17.7779 16.0609L14.4977 13.4975C14.2113 13.8632 13.8814 14.1922 13.5152 14.4779L16.0787 17.7592C15.3544 18.3249 14.5539 18.7869 13.7018 19.1313L11.6168 13.9711C11.8019 13.8965 11.9825 13.8069 12.1578 13.7055L12.1559 13.7025C12.8084 13.3257 13.3505 12.7838 13.7271 12.1313C14.1039 11.4789 14.3023 10.7381 14.3023 9.98477H15.7105Z" fill="white"/>
<path d="M6.02793 11.599C6.17528 11.9637 6.37594 12.3123 6.62754 12.6332L2.23984 16.0609C1.67392 15.3368 1.21212 14.5362 0.867773 13.684L6.02793 11.599Z" fill="white"/>
<path fill-rule="evenodd" clip-rule="evenodd" d="M7.85312 7.86563C9.0436 6.67544 10.9742 6.67533 12.1646 7.86563C13.355 9.05597 13.3549 10.9857 12.1646 12.1762C10.9741 13.3666 9.0436 13.3666 7.85312 12.1762C6.6632 10.9859 6.66314 9.05592 7.85312 7.86563ZM11.1686 8.86172C10.5282 8.22138 9.48966 8.22142 8.84922 8.86172L8.81992 8.89199C8.20923 9.53443 8.21885 10.5507 8.84922 11.1811C9.47967 11.8114 10.4968 11.821 11.1393 11.2104L11.1686 11.1811C11.809 10.5408 11.809 9.50212 11.1686 8.86172Z" fill="white"/>
<path fill-rule="evenodd" clip-rule="evenodd" d="M13.7018 0.85C14.554 1.1943 15.3544 1.65626 16.0787 2.22207L15.1832 3.36855C15.4509 3.57789 15.706 3.8045 15.9479 4.04629C16.1915 4.28991 16.4188 4.54785 16.6295 4.81777L17.7779 3.92031C18.3438 4.64451 18.8056 5.44519 19.15 6.29727L17.7984 6.84316C17.9253 7.15789 18.0334 7.48113 18.1217 7.81094C18.5033 9.23492 18.5033 10.7347 18.1217 12.1586L16.7623 11.7943C17.0799 10.6091 17.0799 9.36045 16.7623 8.1752C16.6888 7.90092 16.5973 7.63226 16.4918 7.37051L13.9918 8.38223C13.8446 8.01726 13.6446 7.66836 13.3932 7.34707L13.3941 7.34512C13.2859 7.2064 13.1702 7.07328 13.0455 6.94863C12.9227 6.82578 12.7915 6.71176 12.6549 6.60488L12.6539 6.60684C12.3328 6.35513 11.9836 6.15457 11.6187 6.00723L12.6285 3.5043C12.3652 3.39787 12.095 3.3068 11.8189 3.23281C10.6337 2.91523 9.38514 2.91523 8.1998 3.23281L7.83457 1.87246C9.25854 1.49093 10.7582 1.49103 12.1822 1.87246C12.5142 1.9614 12.8401 2.06968 13.1568 2.19766L13.7018 0.85ZM13.5211 5.49551C13.703 5.63777 13.8771 5.78992 14.0406 5.95352C14.206 6.11887 14.3599 6.29493 14.5035 6.47891L15.5201 5.68398C15.3447 5.45923 15.1556 5.24425 14.9527 5.04141C14.7514 4.84016 14.5379 4.65218 14.315 4.47793L13.5211 5.49551Z" fill="white"/>
<path d="M5.75645 9.39297C5.70129 9.7892 5.70184 10.1922 5.75742 10.5883L0.245703 11.3627C0.117813 10.4525 0.117786 9.5287 0.245703 8.61855L5.75645 9.39297Z" fill="white"/>
<path d="M7.87168 4.69961C8.5484 4.42595 9.27352 4.28369 10.0084 4.28359V5.6918C9.45452 5.69188 8.90802 5.79978 8.39805 6.00625L8.39902 6.00723C8.03414 6.15458 7.68599 6.35512 7.36484 6.60684L7.36289 6.60488C7.08705 6.82081 6.83901 7.06981 6.62363 7.34609L6.62461 7.34707C6.37316 7.66838 6.17401 8.01723 6.02695 8.38223L0.867773 6.29727C1.21206 5.44534 1.67413 4.64537 2.23984 3.92129L5.51426 6.47891C5.80037 6.11212 6.13032 5.78214 6.49668 5.49551L3.93906 2.22207C4.66321 1.65637 5.46303 1.19427 6.31504 0.85L7.87168 4.69961Z" fill="white"/>
</svg>
