<svg width="20" height="20" viewBox="0 0 20 20" fill="none" xmlns="http://www.w3.org/2000/svg">
<path d="M6.18755 11.3151C6.34266 11.699 6.55266 12.0658 6.81754 12.4037L2.20002 16.0114C1.60431 15.249 1.11815 14.4069 0.755688 13.5098L6.18755 11.3151Z" fill="white"/>
<path d="M6.49019 19.2443C5.59306 18.8818 4.75099 18.3956 3.98852 17.7999L7.5963 13.1819C7.93431 13.4466 8.30129 13.6563 8.68526 13.8111L6.49019 19.2443Z" fill="white"/>
<path d="M5.9023 8.99306C5.84421 9.4102 5.84437 9.83384 5.90288 10.2509L0.100996 11.0665C-0.0336662 10.1083 -0.0336643 9.136 0.100996 8.17783L5.9023 8.99306Z" fill="white"/>
<path d="M11.8222 19.899C10.864 20.0337 9.89169 20.0337 8.93352 19.899L9.74913 14.095C10.1661 14.1533 10.5895 14.1533 11.0065 14.0951L11.8222 19.899Z" fill="white"/>
<path d="M6.81504 6.83876C6.55031 7.17704 6.34063 7.54439 6.18582 7.92867L0.755624 5.73483C1.11809 4.83769 1.60424 3.99556 2.19995 3.23309L6.81504 6.83876Z" fill="white"/>
<path d="M16.7668 17.8C16.0044 18.3957 15.1623 18.8819 14.2652 19.2444L12.0701 13.8113C12.4541 13.6565 12.821 13.4467 13.1591 13.1821L16.7668 17.8Z" fill="white"/>
<path d="M19.9997 13.5098C19.6373 14.4069 19.1511 15.249 18.5554 16.0114L13.9381 12.4039C14.203 12.066 14.4131 11.6992 14.5682 11.3153L19.9997 13.5098Z" fill="white"/>
<path d="M8.68353 5.42891C8.29933 5.58404 7.93212 5.79411 7.59399 6.05916L3.98852 1.44452C4.75099 0.848813 5.59306 0.362721 6.49019 0.000255939L8.68353 5.42891Z" fill="white"/>
<path d="M18.5557 3.23283C19.1514 3.9953 19.6375 4.83738 20 5.73451L14.5699 7.92829C14.415 7.54404 14.2052 7.17681 13.9405 6.83856L18.5557 3.23283Z" fill="white"/>
<path d="M13.1616 6.0591C12.8235 5.79406 12.4563 5.58397 12.0721 5.42885L14.2655 0C15.1626 0.362466 16.0047 0.848558 16.7672 1.44426L13.1616 6.0591Z" fill="white"/>
<path d="M16.3797 9.61576C16.3797 10.6693 16.1023 11.7042 15.5756 12.6166C15.0488 13.529 14.2912 14.2867 13.3788 14.8135L12.6375 13.5296C13.3245 13.1329 13.895 12.5624 14.2916 11.8753C14.6883 11.1883 14.8971 10.409 14.8971 9.61576H16.3797ZM8.10895 7.38514C9.36205 6.13206 11.3937 6.13204 12.6468 7.38514C13.8999 8.63824 13.8999 10.6699 12.6468 11.923C11.3937 13.1761 9.36205 13.1761 8.10895 11.923C6.85584 10.6699 6.85584 8.63824 8.10895 7.38514ZM8.08958 1.07577C9.58865 0.674094 11.167 0.674101 12.6661 1.07577C14.1652 1.47744 15.5322 2.26663 16.6296 3.36403C17.727 4.46143 18.5162 5.82842 18.9178 7.3275C19.3195 8.82657 19.3195 10.405 18.9178 11.904L17.4858 11.5204C17.8201 10.2727 17.8201 8.95887 17.4858 7.71117C17.1515 6.4635 16.4946 5.32579 15.5813 4.41243C14.6679 3.49905 13.5301 2.84215 12.2824 2.50783C11.0347 2.17351 9.72104 2.17352 8.47334 2.50783L8.08958 1.07577ZM11.5984 8.43345C10.9243 7.75935 9.83137 7.75934 9.15725 8.43345L9.12612 8.46539C8.48328 9.14167 8.49366 10.2111 9.15725 10.8747C9.82085 11.5383 10.8903 11.5487 11.5666 10.9059L11.5984 10.8747C12.2726 10.2006 12.2726 9.10757 11.5984 8.43345ZM13.3788 4.41804C13.833 4.68029 14.251 5.001 14.6218 5.37187C14.9927 5.74275 15.3133 6.16068 15.5756 6.61491L14.2916 7.35618C14.0942 7.01416 13.8527 6.69944 13.5734 6.42018C13.2942 6.14092 12.9795 5.89943 12.6375 5.70197L13.3788 4.41804ZM10.3778 5.09652C9.58457 5.09652 8.80527 5.30533 8.11827 5.70197C7.43126 6.09862 6.8607 6.66909 6.46405 7.35609L5.18021 6.61482C5.70698 5.70245 6.46462 4.94479 7.37699 4.41804C8.28937 3.89128 9.32433 3.61396 10.3778 3.61396V5.09652Z" fill="white"/>
</svg>
