<svg width="19" height="20" viewBox="0 0 19 20" fill="none" xmlns="http://www.w3.org/2000/svg">
<g clip-path="url(#clip0_107_61)">
<path d="M18 15.0644V4.93862L9.40533 0.10584C9.28195 0.0365005 9.14203 0 8.99961 0C8.85718 0 8.71726 0.0365005 8.59388 0.10584L0 4.93555V15.0614L8.59388 19.8942C8.71726 19.9635 8.85718 20 8.99961 20C9.14203 20 9.28195 19.9635 9.40533 19.8942L18 15.0644Z" fill="#14A39E"/>
<path d="M14.3126 10.6942L13.8105 10.9773V9.16845L12.9581 9.63869V11.4567L7.3094 14.6356L6.01469 13.9069L9.12672 12.2192L7.00481 11.0272V8.63455L3.96834 10.4089V8.99509L10.9566 5.06289L12.6094 6.00567L13.7428 5.37357L9.61705 3.01932C9.47264 2.93724 9.30845 2.89399 9.14128 2.89399C8.9741 2.89399 8.80992 2.93724 8.6655 3.01932L3.30564 6.03098C3.16186 6.11189 3.0425 6.22831 2.95959 6.36851C2.87669 6.5087 2.83316 6.66772 2.83341 6.82954V11.4322L1.41041 14.1723L4.51377 14.3388L8.66707 16.6761C8.81065 16.7569 8.97352 16.7995 9.13931 16.7995C9.3051 16.7995 9.46797 16.7569 9.61154 16.6761L14.969 13.6614C15.1129 13.5804 15.2324 13.4639 15.3153 13.3235C15.3982 13.1832 15.4417 13.024 15.4413 12.8621V8.24869L14.3087 8.87695L14.3126 10.6942Z" fill="white"/>
</g>
<defs>
<clipPath id="clip0_107_61">
<rect width="228.7" height="260.89" fill="white"/>
</clipPath>
</defs>
</svg>
