<svg width="19" height="20" viewBox="0 0 19 20" fill="none" xmlns="http://www.w3.org/2000/svg">
<g clip-path="url(#clip0_107_61)">
<path fill-rule="evenodd" clip-rule="evenodd" d="M8.99958 0C9.142 0 9.28194 0.0365119 9.40533 0.105852L18 4.93863V15.0644L9.40533 19.8941C9.28194 19.9635 9.142 20 8.99958 20C8.85717 20 8.71727 19.9635 8.5939 19.8941L0 15.0614V4.93556L8.5939 0.105852C8.71728 0.0365228 8.85717 3.69297e-06 8.99958 0ZM9.14123 2.89396C8.97407 2.89396 8.80987 2.93721 8.66546 3.01929L3.30564 6.03101C3.16187 6.11191 3.04251 6.2283 2.95961 6.36849C2.87671 6.50868 2.83317 6.6677 2.8334 6.8295V11.4321L1.4104 14.1723L4.51374 14.3388L8.66708 16.6761C8.81065 16.7569 8.97352 16.7994 9.13931 16.7994C9.3051 16.7994 9.46797 16.7569 9.61154 16.6761L14.9691 13.6614C15.1129 13.5804 15.2323 13.4639 15.3152 13.3235C15.3982 13.1832 15.4417 13.024 15.4413 12.8621V8.24865L14.3087 8.87694L14.3126 10.6943L13.8105 10.9773V9.16843L12.9581 9.63866V11.4567L7.3094 14.6356L6.01468 13.9069L9.12671 12.2193L7.0048 11.0272V8.63453L3.96833 10.4088V8.99508L10.9566 5.06291L12.6094 6.00569L13.7428 5.37357L9.61708 3.01929C9.47266 2.93721 9.30841 2.89396 9.14123 2.89396Z" fill="white"/>
</g>
<defs>
<clipPath id="clip0_107_61">
<rect width="228.7" height="260.89" fill="white"/>
</clipPath>
</defs>
</svg>
